<?xml version="1.0" encoding="UTF-8"?>
<svg version="1.1" xmlns="http://www.w3.org/2000/svg" width="512" height="512">
<path d="M0 0 C0.95390625 -0.0038269 1.9078125 -0.00765381 2.890625 -0.01159668 C4.90105245 -0.01431036 6.91151553 -0.00698737 8.921875 0.00976562 C11.99038787 0.03118291 15.05655952 0.00994534 18.125 -0.015625 C20.08333848 -0.01298163 22.0416755 -0.00785645 24 0 C25.36898437 -0.01214539 25.36898437 -0.01214539 26.765625 -0.02453613 C32.33825892 0.05706166 35.59835249 0.78712414 40 4.53125 C43.77696721 9.10336821 44 10.28523581 44 16.53125 C86.24 16.53125 128.48 16.53125 172 16.53125 C172 14.55125 172 12.57125 172 10.53125 C174.51003711 5.70425555 177.21978334 3.07980371 182 0.53125 C185.33870524 -0.03758571 188.61928217 -0.02999313 192 0 C192.95390625 -0.0038269 193.9078125 -0.00765381 194.890625 -0.01159668 C196.90105245 -0.01431036 198.91151553 -0.00698737 200.921875 0.00976562 C203.99038787 0.03118291 207.05655952 0.00994534 210.125 -0.015625 C212.08333848 -0.01298163 214.0416755 -0.00785645 216 0 C217.36898437 -0.01214539 217.36898437 -0.01214539 218.765625 -0.02453613 C224.33825892 0.05706166 227.59835249 0.78712414 232 4.53125 C235.49021841 8.75625123 236.1949987 11.14628601 236 16.53125 C236.86238281 16.48484375 237.72476562 16.4384375 238.61328125 16.390625 C268.24127018 15.51461266 294.72397709 28.59676227 316 48.53125 C333.90259211 65.95075629 347.13740736 91.69223776 348.13422108 116.92944241 C348.1406313 118.80556509 348.1406313 118.80556509 348.14717102 120.71958923 C348.15084771 121.42058685 348.1545244 122.12158447 348.1583125 122.84382445 C348.1692809 125.18096542 348.17318152 127.51806183 348.17700195 129.85522461 C348.18327197 131.53618509 348.18991925 133.21714419 348.19691467 134.89810181 C348.21790034 140.40992274 348.22831464 145.92174377 348.23828125 151.43359375 C348.24233141 153.33703691 348.24644841 155.24047993 348.25063133 157.14392281 C348.26967405 166.09216352 348.28390479 175.04039605 348.2922433 183.98865312 C348.30200064 194.28722246 348.32828472 204.58557601 348.36874419 214.88406938 C348.39900551 222.86312913 348.41372179 230.84212738 348.41702431 238.82124335 C348.41936412 243.57752518 348.42818378 248.33357626 348.45348549 253.08979607 C348.47694606 257.57229049 348.48092804 262.05440519 348.47072411 266.53694534 C348.47023291 268.17063353 348.4764285 269.80434158 348.49028015 271.43797112 C348.5987013 284.99768731 346.73971649 297.59415073 340.3125 309.78125 C339.97001221 310.44398926 339.62752441 311.10672852 339.2746582 311.78955078 C328.72564569 331.48454044 311.16120668 344.04613157 290.27734375 350.62109375 C269.33783523 356.43623736 247.78518302 352.63099048 228.8515625 342.82421875 C220.67801664 338.17723903 213.92753151 331.75532293 207.33081055 325.13671875 C206.51662155 324.32764069 205.70243256 323.51856262 204.86357117 322.68496704 C202.1994775 320.03466574 199.54276785 317.37711153 196.88671875 314.71875 C195.02608211 312.86200436 193.16522344 311.00548119 191.30415344 309.14916992 C187.41635842 305.26955315 183.5330966 301.38543962 179.65209961 297.49902344 C175.17720026 293.01807171 170.69316902 288.54640846 166.2046296 284.0791235 C161.86718294 279.76145513 157.53815812 275.43543791 153.21235085 271.10610962 C151.37870783 269.27297922 149.54270653 267.44220456 147.70429039 265.61386108 C145.13635946 263.05828476 142.57817504 260.49332458 140.0222168 257.92578125 C139.26527527 257.17648346 138.50833374 256.42718567 137.72845459 255.65518188 C128 245.82914362 128 245.82914362 128 240.53125 C114.8 240.53125 101.6 240.53125 88 240.53125 C87.01 243.50125 87.01 243.50125 86 246.53125 C84.46600342 248.66500854 84.46600342 248.66500854 82.49511719 250.76904297 C81.68441772 251.63495056 80.87371826 252.50085815 80.03845215 253.39300537 C79.02791991 254.44129457 78.01486567 255.4871555 77 256.53125 C76.39785172 257.15154335 75.79570343 257.7718367 75.17530823 258.41092682 C69.84449624 263.88413572 64.46483526 269.30844118 59.078125 274.7265625 C58.21999962 275.59001156 57.36187424 276.45346062 56.47774506 277.3430748 C51.94019083 281.90720949 47.39906686 286.46776138 42.85546875 291.02587891 C39.11859522 294.77610831 35.38913303 298.53347765 31.66601562 302.29736328 C27.1410564 306.87184027 22.60375835 311.43373192 18.05751801 315.98705673 C16.33904523 317.71220227 14.62479674 319.44156744 12.91507721 321.17538834 C-4.62475837 338.94842429 -23.42367412 352.71360206 -49.53759766 353 C-50.61831543 352.9896875 -51.6990332 352.979375 -52.8125 352.96875 C-53.95251465 352.95972656 -55.0925293 352.95070313 -56.26708984 352.94140625 C-75.39064134 352.54963055 -92.85304295 345.47584361 -107 332.53125 C-108.02287109 331.64566406 -108.02287109 331.64566406 -109.06640625 330.7421875 C-121.75217791 319.07425662 -131.25675266 300.23201067 -132.19124985 283.00581741 C-132.27434227 278.64615956 -132.29364866 274.29043264 -132.29052734 269.93017578 C-132.29651996 268.25526126 -132.30332718 266.58034949 -132.31088257 264.90544128 C-132.32848379 260.37383638 -132.3332357 255.84230712 -132.33451414 251.31067133 C-132.33594063 248.47033953 -132.3402198 245.63002664 -132.34550858 242.78969955 C-132.36399555 232.85392804 -132.37218162 222.91821002 -132.37060547 212.98242188 C-132.36940724 203.76610977 -132.39045031 194.55003305 -132.4220928 185.33378041 C-132.4483878 177.38770911 -132.45896713 169.44171401 -132.45769465 161.49559963 C-132.45718851 156.76495826 -132.46267549 152.03452585 -132.48405075 147.30392838 C-132.50365518 142.84352476 -132.50340884 138.38352449 -132.48901749 133.92310524 C-132.48695485 132.30238939 -132.49147452 130.68164679 -132.5037384 129.06097603 C-132.61056128 113.94285284 -130.60401494 98.61473546 -124.3125 84.71875 C-123.79876831 83.54868408 -123.79876831 83.54868408 -123.2746582 82.35498047 C-110.97920528 55.21654355 -88.6594588 33.98203856 -60.89599609 23.23779297 C-47.12678526 18.10669637 -34.58219534 16.17702663 -20 16.53125 C-20.03351563 15.60570313 -20.06703125 14.68015625 -20.1015625 13.7265625 C-19.9673056 9.50263379 -18.67159194 7.76528234 -16 4.53125 C-10.76781943 0.08065678 -6.56022949 -0.05820119 0 0 Z " fill="#D6E5EF" transform="translate(148,79.46875)"/>
<path d="M0 0 C4.60398867 -0.12532845 9.20694546 -0.21513346 13.81225586 -0.2746582 C15.37265354 -0.29951807 16.93293838 -0.33341932 18.49291992 -0.37719727 C32.654771 -0.76413309 43.89609854 1.57070085 55 11 C55.73089844 11.51304687 56.46179688 12.02609375 57.21484375 12.5546875 C57.80394531 13.03164063 58.39304687 13.50859375 59 14 C59 14.66 59 15.32 59 16 C60.32 16.66 61.64 17.32 63 18 C63 18.66 63 19.32 63 20 C63.99 20.33 64.98 20.66 66 21 C66 21.66 66 22.32 66 23 C67.485 23.495 67.485 23.495 69 24 C69 24.66 69 25.32 69 26 C70.32 26.66 71.64 27.32 73 28 C73 28.66 73 29.32 73 30 C74.485 30.495 74.485 30.495 76 31 C76 31.66 76 32.32 76 33 C77.485 33.495 77.485 33.495 79 34 C79 34.66 79 35.32 79 36 C80.485 36.495 80.485 36.495 82 37 C82 37.66 82 38.32 82 39 C83.485 39.495 83.485 39.495 85 40 C85 40.66 85 41.32 85 42 C86.485 42.495 86.485 42.495 88 43 C88 43.66 88 44.32 88 45 C89.485 45.495 89.485 45.495 91 46 C91 46.66 91 47.32 91 48 C92.485 48.495 92.485 48.495 94 49 C94 49.66 94 50.32 94 51 C94.66 51 95.32 51 96 51 C96 51.66 96 52.32 96 53 C97.485 53.495 97.485 53.495 99 54 C99 54.66 99 55.32 99 56 C99.66 56 100.32 56 101 56 C101 56.66 101 57.32 101 58 C102.485 58.495 102.485 58.495 104 59 C104 59.66 104 60.32 104 61 C104.58265625 61.26425781 105.1653125 61.52851563 105.765625 61.80078125 C108.08317474 63.04464099 109.77302371 64.45962272 111.75 66.1875 C125.92016769 77.3278621 143.35744515 80.2141113 161 79 C177.28703746 76.45141712 193.57075828 68.42087156 204.16015625 55.5703125 C211.69631647 45.04208867 217.04781603 33.88820488 219 21 C219.33 21 219.66 21 220 21 C220.75138551 45.34778055 218.041549 66.5368589 201.3984375 85.48046875 C188.16543959 99.38158219 171.08795764 110.88650285 151.28369141 112.17700195 C125.89476773 112.70761143 105.06682513 108.57973961 85.8543148 91.04127502 C83.65521865 88.91944411 81.48803616 86.7698505 79.33081055 84.60546875 C78.51662155 83.79639069 77.70243256 82.98731262 76.86357117 82.15371704 C74.1994775 79.50341574 71.54276785 76.84586153 68.88671875 74.1875 C67.02608211 72.33075436 65.16522344 70.47423119 63.30415344 68.61791992 C59.41635842 64.73830315 55.5330966 60.85418962 51.65209961 56.96777344 C47.17720026 52.48682171 42.69316902 48.01515846 38.2046296 43.5478735 C33.86718294 39.23020513 29.53815812 34.90418791 25.21235085 30.57485962 C23.37870783 28.74172922 21.54270653 26.91095456 19.70429039 25.08261108 C17.13635946 22.52703476 14.57817504 19.96207458 12.0222168 17.39453125 C11.26527527 16.64523346 10.50833374 15.89593567 9.72845459 15.12393188 C0 5.29789362 0 5.29789362 0 0 Z " fill="#A5C3DC" transform="translate(276,320)"/>
<path d="M0 0 C0.74900574 0.00141495 1.49801147 0.0028299 2.26971436 0.00428772 C4.65380912 0.00986966 7.03780878 0.0224188 9.421875 0.03515625 C11.04166531 0.04017359 12.66145709 0.04473609 14.28125 0.04882812 C18.24482812 0.05983317 22.20833545 0.07708534 26.171875 0.09765625 C24.96123665 4.33772903 23.6781026 7.12091565 20.66699219 10.33544922 C19.85629272 11.20135681 19.04559326 12.0672644 18.21032715 12.95941162 C17.19979491 14.00770082 16.18674067 15.05356175 15.171875 16.09765625 C14.56972672 16.7179496 13.96757843 17.33824295 13.34718323 17.97733307 C8.01637124 23.45054197 2.63671026 28.87484743 -2.75 34.29296875 C-4.03718807 35.58814234 -4.03718807 35.58814234 -5.35037994 36.90948105 C-9.88793417 41.47361574 -14.42905814 46.03416763 -18.97265625 50.59228516 C-22.70952978 54.34251456 -26.43899197 58.0998839 -30.16210938 61.86376953 C-34.6870686 66.43824652 -39.22436665 71.00013817 -43.77060699 75.55346298 C-45.48907977 77.27860852 -47.20332826 79.00797369 -48.91304779 80.74179459 C-66.45288337 98.51483054 -85.25179912 112.28000831 -111.36572266 112.56640625 C-112.44644043 112.55609375 -113.5271582 112.54578125 -114.640625 112.53515625 C-115.78063965 112.52613281 -116.9206543 112.51710938 -118.09521484 112.5078125 C-137.21876634 112.1160368 -154.68116795 105.04224986 -168.828125 92.09765625 C-169.85099609 91.21207031 -169.85099609 91.21207031 -170.89453125 90.30859375 C-183.40387716 78.80293313 -193.14333059 60.02109021 -193.9831543 42.94555664 C-194.02412378 39.47308246 -194.00308644 36.00747665 -193.953125 32.53515625 C-193.94410156 31.33568359 -193.93507812 30.13621094 -193.92578125 28.90039062 C-193.90239912 25.96593316 -193.8696278 23.03190391 -193.828125 20.09765625 C-193.498125 20.09765625 -193.168125 20.09765625 -192.828125 20.09765625 C-192.74175781 20.66871094 -192.65539062 21.23976563 -192.56640625 21.828125 C-190.49300595 33.7929763 -185.92608126 44.26852986 -178.828125 54.09765625 C-178.06242188 55.15919922 -178.06242188 55.15919922 -177.28125 56.2421875 C-168.14827252 67.70362211 -152.20351247 76.53540445 -137.78125 78.8515625 C-126.5950577 79.78374519 -115.44711156 80.16554495 -104.828125 76.09765625 C-103.84585938 75.74574219 -102.86359375 75.39382813 -101.8515625 75.03125 C-84.50992606 68.37996413 -72.15372098 54.55637314 -59.42578125 41.546875 C-58.48452813 40.58778203 -57.54306411 39.62889599 -56.60139465 38.67021179 C-55.64374118 37.69488137 -54.68611504 36.71952412 -53.72851562 35.74414062 C-53.24933528 35.25611875 -52.77015493 34.76809687 -52.27645397 34.26528645 C-49.83214313 31.77341856 -47.3946402 29.27542898 -44.96899414 26.76538086 C-23.92558932 5.01248263 -23.92558932 5.01248263 -11.828125 1.09765625 C-10.89867065 0.78489746 -10.89867065 0.78489746 -9.95043945 0.46582031 C-6.6458249 -0.10744079 -3.34251784 -0.02385917 0 0 Z " fill="#A5C3DC" transform="translate(209.828125,319.90234375)"/>
<path d="M0 0 C42.24 0 84.48 0 128 0 C114.369082 42.02866382 114.369082 42.02866382 110.14880466 45.54039764 C105.23747733 47.79437626 101.15316107 48.57834398 95.76733398 48.51757812 C94.98737061 48.5245874 94.20740723 48.53159668 93.40380859 48.53881836 C90.85086422 48.55628266 88.29904743 48.5448188 85.74609375 48.53125 C83.9582549 48.53394798 82.17041748 48.53783295 80.38258362 48.54284668 C76.64627024 48.54872581 72.91034082 48.54022917 69.17407227 48.52148438 C64.39696716 48.49867905 59.62076032 48.51183776 54.84368801 48.53577423 C51.15551543 48.55026112 47.46755419 48.54561329 43.77937508 48.53526306 C42.01840164 48.53260462 40.25740869 48.53583434 38.49645805 48.54518127 C36.03154881 48.5553968 33.56807446 48.53977838 31.10327148 48.51757812 C30.38359695 48.52567505 29.66392242 48.53377197 28.92243958 48.54211426 C23.90925856 48.45891163 19.68232082 47.46503228 16 44 C8.25712348 30.4499661 4.81460655 14.84503686 0 0 Z " fill="#A5C3DC" transform="translate(192,96)"/>
<path d="M0 0 C9.29059594 6.40383004 15.78650062 14.5291271 18.53125 25.6171875 C20.41015803 37.60641014 18.70553419 48.25885896 11.59765625 58.13671875 C4.9623444 66.54040381 -2.6926376 71.34861431 -13.05859375 74.234375 C-24.90646046 75.36671639 -34.92834242 74.47810179 -44.8046875 67.21484375 C-53.70463576 59.66377323 -59.91695613 51.03129707 -61.05859375 39.234375 C-61.82161068 27.40761264 -59.16943815 17.81224705 -52.05859375 8.234375 C-38.4698597 -6.78629017 -17.50640796 -10.10587024 0 0 Z " fill="#473E4D" transform="translate(133.05859375,154.765625)"/>
<path d="M0 0 C10.40922052 6.23183597 16.68268877 15.45293368 20 27 C21.30712957 39.01183278 19.12459789 49.50258687 12.125 59.4375 C4.04637634 69.22664857 -5.4747103 74.08175228 -18.0390625 75.29296875 C-29.65873612 75.80600923 -39.42001464 71.78946986 -48 64 C-55.51389896 57.07507649 -59.32871914 47.14434629 -60.2734375 37.08984375 C-60.6506644 25.38130123 -56.92212881 15.65997414 -49 7 C-35.57044338 -6.61959751 -16.88247715 -8.71649635 0 0 Z " fill="#473D4C" transform="translate(340,229)"/>
<path d="M0 0 C8.9950034 7.63959193 14.11525625 16.86344847 15.2890625 28.6328125 C15.77548601 39.57076811 12.59805903 49.49618365 5.58984375 57.98828125 C-1.59475215 65.68354696 -10.25726768 71.11583954 -20.98046875 71.91796875 C-33.44508798 72.25366693 -43.78077058 69.07089985 -53.234375 60.7265625 C-61.81445302 51.84062804 -65.37797584 40.76340375 -65.21484375 28.59375 C-64.4407577 17.95723433 -59.37472634 8.5319381 -51.62890625 1.3203125 C-36.55149884 -11.16448562 -15.93520321 -11.63708418 0 0 Z " fill="#A5C3DB" transform="translate(217.00390625,232.3046875)"/>
<path d="M0 0 C1.1034375 0.0103125 2.206875 0.020625 3.34375 0.03125 C6.77460709 0.54078323 8.72636735 1.4499237 11.5 3.5 C13.03266582 6.56533164 12.60276471 9.76754272 12.5625 13.125 C12.55798828 13.83140625 12.55347656 14.5378125 12.54882812 15.265625 C12.53703875 17.01045275 12.51910324 18.755237 12.5 20.5 C13.45261719 20.46519531 14.40523437 20.43039063 15.38671875 20.39453125 C16.64097656 20.36746094 17.89523438 20.34039062 19.1875 20.3125 C20.42886719 20.27769531 21.67023438 20.24289063 22.94921875 20.20703125 C26.71666932 20.51787701 28.52794917 21.2227143 31.5 23.5 C32.90053506 26.30107012 32.7075504 28.68891681 32.75 31.8125 C32.77578125 32.94300781 32.8015625 34.07351563 32.828125 35.23828125 C32.46679578 38.83006577 31.70745821 40.66847066 29.5 43.5 C25.93954823 44.68681726 23.06191663 44.59689832 19.3125 44.5625 C18.04019531 44.55347656 16.76789063 44.54445313 15.45703125 44.53515625 C13.99330078 44.51775391 13.99330078 44.51775391 12.5 44.5 C12.55220703 45.92892578 12.55220703 45.92892578 12.60546875 47.38671875 C12.63253906 48.64097656 12.65960938 49.89523437 12.6875 51.1875 C12.73970703 53.04955078 12.73970703 53.04955078 12.79296875 54.94921875 C12.48107185 58.72940916 11.84485822 60.55389608 9.5 63.5 C6.18002061 64.6066598 3.55693373 64.70240272 0.0625 64.75 C-1.07058594 64.77578125 -2.20367187 64.8015625 -3.37109375 64.828125 C-6.78577259 64.47003134 -8.11055897 63.91768501 -10.5 61.5 C-11.68681726 57.93954823 -11.59689832 55.06191663 -11.5625 51.3125 C-11.55347656 50.04019531 -11.54445312 48.76789063 -11.53515625 47.45703125 C-11.52355469 46.48121094 -11.51195312 45.50539063 -11.5 44.5 C-13.05460937 44.55220703 -13.05460937 44.55220703 -14.640625 44.60546875 C-16.01040042 44.63361482 -17.38019341 44.66091411 -18.75 44.6875 C-19.43191406 44.71263672 -20.11382812 44.73777344 -20.81640625 44.76367188 C-23.95476658 44.80937615 -26.14270911 44.69535744 -28.921875 43.17578125 C-31.94425785 39.96636976 -31.74980849 36.33336067 -31.875 32.125 C-31.92398438 31.00351562 -31.97296875 29.88203125 -32.0234375 28.7265625 C-31.5 25.5 -31.5 25.5 -29.46484375 22.60546875 C-25.79166587 19.99698011 -23.01364036 19.91840993 -18.6875 20.1875 C-17.99462891 20.21005859 -17.30175781 20.23261719 -16.58789062 20.25585938 C-14.89098427 20.31437339 -13.19520139 20.4040452 -11.5 20.5 C-11.55800781 19.47519531 -11.61601562 18.45039063 -11.67578125 17.39453125 C-11.72269957 16.03389989 -11.76819752 14.67321904 -11.8125 13.3125 C-11.85439453 12.63896484 -11.89628906 11.96542969 -11.93945312 11.27148438 C-12.03211099 7.47251195 -11.61228198 5.65711175 -9.38671875 2.54296875 C-5.94504995 0.10725457 -4.17674676 -0.11710505 0 0 Z " fill="#555A6E" transform="translate(191.5,231.5)"/>
<path d="M0 0 C6.81570387 6.25981313 9.8927882 11.63364876 10.375 20.9375 C10.19302433 28.00243767 7.42540204 32.71178564 2.6875 37.8125 C-2.04629967 42.20530563 -6.53453339 44.13643586 -13 44.3125 C-21.19022381 43.97896147 -26.03869498 41.83700613 -31.9765625 36.203125 C-36.29626512 31.49981944 -38.19079344 27.3459494 -38.375 20.9375 C-37.89429554 11.6627315 -34.75457079 6.27992527 -28 0 C-19.52856711 -5.55937783 -8.33345403 -6.23342361 0 0 Z " fill="#54596D" transform="translate(334,244)"/>
<path d="M0 0 C5.66677385 2.56380254 9.78723792 6.91707695 12.484375 12.484375 C15.24734336 19.84800695 15.66638327 26.27479849 12.44921875 33.53515625 C9.73288126 38.51123889 6.29374617 41.49680115 1.44921875 44.34765625 C0.84464844 44.71890625 0.24007812 45.09015625 -0.3828125 45.47265625 C-6.21468361 47.82642045 -13.70236329 47.40220888 -19.515625 45.25 C-25.96817891 41.61134178 -29.24663848 37.40733636 -32.86328125 31.03515625 C-34.68243745 23.92390927 -33.90510506 17.36549774 -30.95703125 10.6796875 C-24.17625942 -0.56509246 -12.1837402 -3.11590293 0 0 Z " fill="#54596D" transform="translate(121.55078125,166.65234375)"/>
<path d="M0 0 C0.95390625 -0.0038269 1.9078125 -0.00765381 2.890625 -0.01159668 C4.90105245 -0.01431036 6.91151553 -0.00698737 8.921875 0.00976562 C11.99038787 0.03118291 15.05655952 0.00994534 18.125 -0.015625 C20.08333848 -0.01298163 22.0416755 -0.00785645 24 0 C25.36898437 -0.01214539 25.36898437 -0.01214539 26.765625 -0.02453613 C32.33825892 0.05706166 35.59835249 0.78712414 40 4.53125 C43.77696721 9.10336821 44 10.28523581 44 16.53125 C22.88 16.53125 1.76 16.53125 -20 16.53125 C-20 10.28523581 -19.77696721 9.10336821 -16 4.53125 C-10.76781943 0.08065678 -6.56022949 -0.05820119 0 0 Z " fill="#55596D" transform="translate(340,79.46875)"/>
<path d="M0 0 C0.95390625 -0.0038269 1.9078125 -0.00765381 2.890625 -0.01159668 C4.90105245 -0.01431036 6.91151553 -0.00698737 8.921875 0.00976562 C11.99038787 0.03118291 15.05655952 0.00994534 18.125 -0.015625 C20.08333848 -0.01298163 22.0416755 -0.00785645 24 0 C25.36898437 -0.01214539 25.36898437 -0.01214539 26.765625 -0.02453613 C32.33825892 0.05706166 35.59835249 0.78712414 40 4.53125 C43.77696721 9.10336821 44 10.28523581 44 16.53125 C22.88 16.53125 1.76 16.53125 -20 16.53125 C-20 10.28523581 -19.77696721 9.10336821 -16 4.53125 C-10.76781943 0.08065678 -6.56022949 -0.05820119 0 0 Z " fill="#55596D" transform="translate(148,79.46875)"/>
<path d="M0 0 C5.00230198 2.45567552 8.49851535 5.9970307 11 11 C11.85895445 16.91451492 11.08033922 21.3682911 7.6171875 26.26953125 C3.92992877 30.21507622 -0.21868695 31.6761249 -5.4375 32.625 C-11.64701716 31.53561102 -16.35116262 28.2484146 -20.0625 23.1875 C-21.71064954 17.58379157 -22.0235815 13.04716299 -19.375 7.75 C-13.26806487 0.67881196 -9.53291368 -1.53435869 0 0 Z " fill="#FE7092" transform="translate(437,171)"/>
<path d="M0 0 C5.00230198 2.45567552 8.49851535 5.9970307 11 11 C11.85895445 16.91451492 11.08033922 21.3682911 7.6171875 26.26953125 C3.92992877 30.21507622 -0.21868695 31.6761249 -5.4375 32.625 C-11.64701716 31.53561102 -16.35116262 28.2484146 -20.0625 23.1875 C-21.71064954 17.58379157 -22.0235815 13.04716299 -19.375 7.75 C-13.26806487 0.67881196 -9.53291368 -1.53435869 0 0 Z " fill="#FE7092" transform="translate(373,171)"/>
<path d="M0 0 C5.00230198 2.45567552 8.49851535 5.9970307 11 11 C11.85895445 16.91451492 11.08033922 21.3682911 7.6171875 26.26953125 C3.92992877 30.21507622 -0.21868695 31.6761249 -5.4375 32.625 C-11.64701716 31.53561102 -16.35116262 28.2484146 -20.0625 23.1875 C-21.71064954 17.58379157 -22.0235815 13.04716299 -19.375 7.75 C-13.26806487 0.67881196 -9.53291368 -1.53435869 0 0 Z " fill="#03D2D2" transform="translate(405,203)"/>
<path d="M0 0 C4.37220457 4.20721572 5.81123936 7.45173133 6.25 13.375 C5.93207488 17.98491429 4.86315639 21.11139066 1.5703125 24.44921875 C-3.2274914 28.61447637 -6.73278518 29.41781432 -13 29 C-18.86628117 27.17942998 -21.54960461 24.87114644 -25 20 C-26.62100654 15.13698037 -26.39061285 11.2586414 -24.875 6.375 C-22.45034084 2.01061351 -19.78573751 -0.83178749 -15.0625 -2.8125 C-9.14419277 -3.35052793 -5.09479913 -3.32269509 0 0 Z " fill="#A5C3DC" transform="translate(298,171)"/>
<path d="M0 0 C4.37220457 4.20721572 5.81123936 7.45173133 6.25 13.375 C5.93207488 17.98491429 4.86315639 21.11139066 1.5703125 24.44921875 C-3.2274914 28.61447637 -6.73278518 29.41781432 -13 29 C-18.86628117 27.17942998 -21.54960461 24.87114644 -25 20 C-26.62100654 15.13698037 -26.39061285 11.2586414 -24.875 6.375 C-22.45034084 2.01061351 -19.78573751 -0.83178749 -15.0625 -2.8125 C-9.14419277 -3.35052793 -5.09479913 -3.32269509 0 0 Z " fill="#A5C3DC" transform="translate(234,171)"/>
<path d="M0 0 C5.00230198 2.45567552 8.49851535 5.9970307 11 11 C11.85895445 16.91451492 11.08033922 21.3682911 7.6171875 26.26953125 C3.92992877 30.21507622 -0.21868695 31.6761249 -5.4375 32.625 C-11.64701716 31.53561102 -16.35116262 28.2484146 -20.0625 23.1875 C-21.71064954 17.58379157 -22.0235815 13.04716299 -19.375 7.75 C-13.26806487 0.67881196 -9.53291368 -1.53435869 0 0 Z " fill="#03D2D2" transform="translate(405,139)"/>
</svg>
